<?xml version="1.0" standalone="no"?>
<!DOCTYPE svg PUBLIC "-//W3C//DTD SVG 20010904//EN"
 "http://www.w3.org/TR/2001/REC-SVG-20010904/DTD/svg10.dtd">
<svg version="1.0" xmlns="http://www.w3.org/2000/svg"
 width="512.000000pt" height="512.000000pt" viewBox="0 0 512.000000 512.000000"
 preserveAspectRatio="xMidYMid meet">
<metadata>
Created by potrace 1.14, written by Peter Selinger 2001-2017
</metadata>
<g transform="translate(0.000000,512.000000) scale(0.100000,-0.100000)"
fill="#000000" stroke="none">
<path d="M609 4736 c-102 -27 -181 -95 -228 -196 l-26 -55 0 -1925 0 -1925 27
-57 c34 -73 103 -142 176 -176 l57 -27 1950 0 1950 0 57 27 c73 34 142 103
176 176 l27 57 0 1925 0 1925 -33 67 c-38 77 -92 130 -171 167 l-56 26 -1930
2 c-1508 1 -1940 -1 -1976 -11z m1678 -1341 c1 -5 -32 -21 -75 -34 -42 -12
-112 -41 -155 -62 -92 -46 -222 -128 -214 -135 3 -3 33 9 67 26 87 44 248 95
365 116 74 14 151 19 295 19 168 0 209 -3 299 -23 120 -27 251 -72 335 -114
32 -16 60 -27 63 -25 7 7 -120 88 -202 129 -58 30 -146 64 -214 84 -12 4 -12
7 1 20 12 13 26 13 84 4 138 -21 282 -77 388 -150 35 -23 53 -46 77 -98 128
-276 207 -587 225 -886 l7 -114 -69 -68 c-114 -113 -259 -182 -415 -199 l-67
-7 -61 73 c-58 71 -60 74 -38 83 108 43 170 80 230 136 37 35 66 65 63 67 -2
2 -21 -6 -43 -20 -91 -58 -267 -123 -413 -154 -128 -26 -362 -23 -500 6 -135
30 -254 72 -358 126 -94 50 -97 37 -10 -40 45 -39 147 -97 211 -119 16 -5 10
-17 -44 -82 l-62 -76 -66 7 c-171 18 -343 107 -445 230 l-38 47 11 146 c19
236 67 450 148 667 77 204 103 248 170 288 126 76 212 109 336 132 80 15 109
15 114 0z"/>
<path d="M2160 2719 c-32 -13 -78 -56 -97 -92 -19 -37 -19 -127 0 -164 45 -85
153 -126 240 -89 43 18 93 76 108 127 33 110 -59 230 -176 228 -27 0 -61 -5
-75 -10z"/>
<path d="M2795 2716 c-72 -32 -117 -103 -117 -186 0 -65 16 -101 64 -147 42
-40 76 -53 139 -53 128 0 217 115 194 250 -8 50 -63 116 -112 137 -41 17 -129
16 -168 -1z"/>
</g>
</svg>
